{
    "asset" : {
        "generator" : "Khronos glTF Blender I/O v0.9.4",
        "version" : "2.0"
    },
    "scene" : 0,
    "scenes" : [
        {
            "name" : "Scene",
            "nodes" : [
                0
            ]
        }
    ],
    "nodes" : [
        {
            "mesh" : 0,
            "name" : "Terrain.001",
            "translation" : [
                -0.21025830507278442,
                -2.4496078491210938,
                0.7817604541778564
            ]
        }
    ],
    "materials" : [
        {
            "name" : "Terrain",
            "pbrMetallicRoughness" : {
                "baseColorFactor" : [
                    0.31192925572395325,
                    0.2424997240304947,
                    0.13439497351646423,
                    1
                ],
                "metallicFactor" : 0,
                "roughnessFactor" : 0.8688212633132935
            }
        }
    ],
    "meshes" : [
        {
            "name" : "Icosphere.001",
            "primitives" : [
                {
                    "attributes" : {
                        "POSITION" : 0,
                        "NORMAL" : 1,
                        "TEXCOORD_0" : 2
                    },
                    "indices" : 3,
                    "material" : 0
                }
            ]
        }
    ],
    "accessors" : [
        {
            "bufferView" : 0,
            "componentType" : 5126,
            "count" : 3540,
            "max" : [
                30.305326461791992,
                8.645845413208008,
                82.16665649414062
            ],
            "min" : [
                -93.64409637451172,
                -66.67239379882812,
                -61.47899627685547
            ],
            "type" : "VEC3"
        },
        {
            "bufferView" : 1,
            "componentType" : 5126,
            "count" : 3540,
            "type" : "VEC3"
        },
        {
            "bufferView" : 2,
            "componentType" : 5126,
            "count" : 3540,
            "type" : "VEC2"
        },
        {
            "bufferView" : 3,
            "componentType" : 5123,
            "count" : 10680,
            "type" : "SCALAR"
        }
    ],
    "bufferViews" : [
        {
            "buffer" : 0,
            "byteLength" : 42480,
            "byteOffset" : 0
        },
        {
            "buffer" : 0,
            "byteLength" : 42480,
            "byteOffset" : 42480
        },
        {
            "buffer" : 0,
            "byteLength" : 28320,
            "byteOffset" : 84960
        },
        {
            "buffer" : 0,
            "byteLength" : 21360,
            "byteOffset" : 113280
        }
    ],
    "buffers" : [
        {
            "byteLength" : 134640,
            "uri" : "data:application/octet-stream;base64,"
        }
    ]
}
