{
    "asset" : {
        "generator" : "Khronos glTF Blender I/O v0.9.4",
        "version" : "2.0"
    },
    "scene" : 0,
    "scenes" : [
        {
            "extras" : {
                "glTF2ExportSettings" : {
                    "export_extras" : 1,
                    "export_format" : "GLTF_EMBEDDED",
                    "export_selected" : 1
                }
            },
            "name" : "Scene",
            "nodes" : [
                0
            ]
        }
    ],
    "nodes" : [
        {
            "mesh" : 0,
            "name" : "Reins.000"
        }
    ],
    "materials" : [
        {
            "name" : "LEATHER.000",
            "pbrMetallicRoughness" : {
                "baseColorFactor" : [
                    0.11493562906980515,
                    0.035899460315704346,
                    0.03908500447869301,
                    1
                ],
                "metallicFactor" : 0,
                "roughnessFactor" : 0.5
            }
        }
    ],
    "meshes" : [
        {
            "name" : "Cube.004",
            "primitives" : [
                {
                    "attributes" : {
                        "POSITION" : 0,
                        "NORMAL" : 1,
                        "TEXCOORD_0" : 2
                    },
                    "indices" : 3,
                    "material" : 0,
                    "targets" : [
                        {
                            "POSITION" : 4,
                            "NORMAL" : 5
                        },
                        {
                            "POSITION" : 6,
                            "NORMAL" : 7
                        },
                        {
                            "POSITION" : 8,
                            "NORMAL" : 9
                        },
                        {
                            "POSITION" : 10,
                            "NORMAL" : 11
                        },
                        {
                            "POSITION" : 12,
                            "NORMAL" : 13
                        },
                        {
                            "POSITION" : 14,
                            "NORMAL" : 15
                        },
                        {
                            "POSITION" : 16,
                            "NORMAL" : 17
                        },
                        {
                            "POSITION" : 18,
                            "NORMAL" : 19
                        }
                    ]
                }
            ]
        }
    ],
    "accessors" : [
        {
            "bufferView" : 0,
            "componentType" : 5126,
            "count" : 284,
            "max" : [
                0.45358189940452576,
                4.029191970825195,
                2.317246437072754
            ],
            "min" : [
                -0.1808924823999405,
                3.1715071201324463,
                0.45612409710884094
            ],
            "type" : "VEC3"
        },
        {
            "bufferView" : 1,
            "componentType" : 5126,
            "count" : 284,
            "type" : "VEC3"
        },
        {
            "bufferView" : 2,
            "componentType" : 5126,
            "count" : 284,
            "type" : "VEC2"
        },
        {
            "bufferView" : 3,
            "componentType" : 5123,
            "count" : 420,
            "type" : "SCALAR"
        },
        {
            "bufferView" : 4,
            "componentType" : 5126,
            "count" : 284,
            "max" : [
                0.17425519227981567,
                0.4393165111541748,
                0.420171856880188
            ],
            "min" : [
                -0.3816589117050171,
                -0.03237557411193848,
                -0.4252951145172119
            ],
            "type" : "VEC3"
        },
        {
            "bufferView" : 5,
            "componentType" : 5126,
            "count" : 284,
            "type" : "VEC3"
        },
        {
            "bufferView" : 6,
            "componentType" : 5126,
            "count" : 284,
            "max" : [
                0.2047349214553833,
                0.46126461029052734,
                0.43298327922821045
            ],
            "min" : [
                -0.481801301240921,
                -0.02210855484008789,
                -0.49503540992736816
            ],
            "type" : "VEC3"
        },
        {
            "bufferView" : 7,
            "componentType" : 5126,
            "count" : 284,
            "type" : "VEC3"
        },
        {
            "bufferView" : 8,
            "componentType" : 5126,
            "count" : 284,
            "max" : [
                0.068088598549366,
                0.4683828353881836,
                0.4837157726287842
            ],
            "min" : [
                -0.4968111515045166,
                -0.14250850677490234,
                -0.3725212812423706
            ],
            "type" : "VEC3"
        },
        {
            "bufferView" : 9,
            "componentType" : 5126,
            "count" : 284,
            "type" : "VEC3"
        },
        {
            "bufferView" : 10,
            "componentType" : 5126,
            "count" : 284,
            "max" : [
                0.07796207815408707,
                0.4817521572113037,
                0.4421941339969635
            ],
            "min" : [
                -0.4884375333786011,
                -0.22585821151733398,
                -0.3946162462234497
            ],
            "type" : "VEC3"
        },
        {
            "bufferView" : 11,
            "componentType" : 5126,
            "count" : 284,
            "type" : "VEC3"
        },
        {
            "bufferView" : 12,
            "componentType" : 5126,
            "count" : 284,
            "max" : [
                0.09775958210229874,
                0.47626519203186035,
                0.44482195377349854
            ],
            "min" : [
                -0.4703792929649353,
                -0.25646018981933594,
                -0.3946162462234497
            ],
            "type" : "VEC3"
        },
        {
            "bufferView" : 13,
            "componentType" : 5126,
            "count" : 284,
            "type" : "VEC3"
        },
        {
            "bufferView" : 14,
            "componentType" : 5126,
            "count" : 284,
            "max" : [
                0.07877276092767715,
                0.47626519203186035,
                0.44482195377349854
            ],
            "min" : [
                -0.4703792929649353,
                -0.29544854164123535,
                -0.3897629976272583
            ],
            "type" : "VEC3"
        },
        {
            "bufferView" : 15,
            "componentType" : 5126,
            "count" : 284,
            "type" : "VEC3"
        },
        {
            "bufferView" : 16,
            "componentType" : 5126,
            "count" : 284,
            "max" : [
                0.09052851051092148,
                0.48352885246276855,
                0.4496878385543823
            ],
            "min" : [
                -0.45191606879234314,
                -0.32341480255126953,
                -0.4135786294937134
            ],
            "type" : "VEC3"
        },
        {
            "bufferView" : 17,
            "componentType" : 5126,
            "count" : 284,
            "type" : "VEC3"
        },
        {
            "bufferView" : 18,
            "componentType" : 5126,
            "count" : 284,
            "max" : [
                0.08282507210969925,
                0.48012781143188477,
                0.4207932949066162
            ],
            "min" : [
                -0.4519160985946655,
                -0.18974041938781738,
                -0.41950201988220215
            ],
            "type" : "VEC3"
        },
        {
            "bufferView" : 19,
            "componentType" : 5126,
            "count" : 284,
            "type" : "VEC3"
        }
    ],
    "bufferViews" : [
        {
            "buffer" : 0,
            "byteLength" : 3408,
            "byteOffset" : 0
        },
        {
            "buffer" : 0,
            "byteLength" : 3408,
            "byteOffset" : 3408
        },
        {
            "buffer" : 0,
            "byteLength" : 2272,
            "byteOffset" : 6816
        },
        {
            "buffer" : 0,
            "byteLength" : 840,
            "byteOffset" : 9088
        },
        {
            "buffer" : 0,
            "byteLength" : 3408,
            "byteOffset" : 9928
        },
        {
            "buffer" : 0,
            "byteLength" : 3408,
            "byteOffset" : 13336
        },
        {
            "buffer" : 0,
            "byteLength" : 3408,
            "byteOffset" : 16744
        },
        {
            "buffer" : 0,
            "byteLength" : 3408,
            "byteOffset" : 20152
        },
        {
            "buffer" : 0,
            "byteLength" : 3408,
            "byteOffset" : 23560
        },
        {
            "buffer" : 0,
            "byteLength" : 3408,
            "byteOffset" : 26968
        },
        {
            "buffer" : 0,
            "byteLength" : 3408,
            "byteOffset" : 30376
        },
        {
            "buffer" : 0,
            "byteLength" : 3408,
            "byteOffset" : 33784
        },
        {
            "buffer" : 0,
            "byteLength" : 3408,
            "byteOffset" : 37192
        },
        {
            "buffer" : 0,
            "byteLength" : 3408,
            "byteOffset" : 40600
        },
        {
            "buffer" : 0,
            "byteLength" : 3408,
            "byteOffset" : 44008
        },
        {
            "buffer" : 0,
            "byteLength" : 3408,
            "byteOffset" : 47416
        },
        {
            "buffer" : 0,
            "byteLength" : 3408,
            "byteOffset" : 50824
        },
        {
            "buffer" : 0,
            "byteLength" : 3408,
            "byteOffset" : 54232
        },
        {
            "buffer" : 0,
            "byteLength" : 3408,
            "byteOffset" : 57640
        },
        {
            "buffer" : 0,
            "byteLength" : 3408,
            "byteOffset" : 61048
        }
    ],
    "buffers" : [
        {
            "byteLength" : 64456,
            "uri" : "data:application/octet-stream;base64,"
        }
    ]
}
