{
    "asset" : {
        "generator" : "Khronos glTF Blender I/O v0.9.4",
        "version" : "2.0"
    },
    "scene" : 0,
    "scenes" : [
        {
            "name" : "Scene",
            "nodes" : [
                0
            ]
        }
    ],
    "nodes" : [
        {
            "mesh" : 0,
            "name" : "rocketPackHelmet"
        }
    ],
    "materials" : [
        {
            "emissiveFactor" : [
                0,
                0,
                0
            ],
            "name" : "Material.002",
            "pbrMetallicRoughness" : {}
        }
    ],
    "meshes" : [
        {
            "name" : "CUGP_Layer.001",
            "primitives" : [
                {
                    "attributes" : {
                        "POSITION" : 0,
                        "NORMAL" : 1
                    },
                    "indices" : 2,
                    "material" : 0
                },
                {
                    "attributes" : {
                        "POSITION" : 3,
                        "NORMAL" : 4
                    },
                    "indices" : 5,
                    "material" : 0
                },
                {
                    "attributes" : {
                        "POSITION" : 6,
                        "NORMAL" : 7
                    },
                    "indices" : 8,
                    "material" : 0
                }
            ]
        }
    ],
    "accessors" : [
        {
            "bufferView" : 0,
            "componentType" : 5126,
            "count" : 65534,
            "max" : [
                2.6402482986450195,
                2.812497854232788,
                1.7278330326080322
            ],
            "min" : [
                -2.640247106552124,
                0.5886889696121216,
                -2.1963582038879395
            ],
            "type" : "VEC3"
        },
        {
            "bufferView" : 1,
            "componentType" : 5126,
            "count" : 65534,
            "type" : "VEC3"
        },
        {
            "bufferView" : 2,
            "componentType" : 5123,
            "count" : 65634,
            "type" : "SCALAR"
        },
        {
            "bufferView" : 3,
            "componentType" : 5126,
            "count" : 14949,
            "max" : [
                1.7341902256011963,
                2.812298059463501,
                1.7278330326080322
            ],
            "min" : [
                -2.3196425437927246,
                0.5883954763412476,
                -2.1962502002716064
            ],
            "type" : "VEC3"
        },
        {
            "bufferView" : 4,
            "componentType" : 5126,
            "count" : 14949,
            "type" : "VEC3"
        },
        {
            "bufferView" : 5,
            "componentType" : 5123,
            "count" : 14949,
            "type" : "SCALAR"
        },
        {
            "bufferView" : 6,
            "componentType" : 5126,
            "count" : 3,
            "max" : [
                0.3160797953605652,
                1.6820189952850342,
                -0.19965805113315582
            ],
            "min" : [
                0.31063199043273926,
                1.6797995567321777,
                -0.2005617618560791
            ],
            "type" : "VEC3"
        },
        {
            "bufferView" : 7,
            "componentType" : 5126,
            "count" : 3,
            "type" : "VEC3"
        },
        {
            "bufferView" : 8,
            "componentType" : 5123,
            "count" : 3,
            "type" : "SCALAR"
        }
    ],
    "bufferViews" : [
        {
            "buffer" : 0,
            "byteLength" : 786408,
            "byteOffset" : 0
        },
        {
            "buffer" : 0,
            "byteLength" : 786408,
            "byteOffset" : 786408
        },
        {
            "buffer" : 0,
            "byteLength" : 131268,
            "byteOffset" : 1572816
        },
        {
            "buffer" : 0,
            "byteLength" : 179388,
            "byteOffset" : 1704084
        },
        {
            "buffer" : 0,
            "byteLength" : 179388,
            "byteOffset" : 1883472
        },
        {
            "buffer" : 0,
            "byteLength" : 29898,
            "byteOffset" : 2062860
        },
        {
            "buffer" : 0,
            "byteLength" : 36,
            "byteOffset" : 2092760
        },
        {
            "buffer" : 0,
            "byteLength" : 36,
            "byteOffset" : 2092796
        },
        {
            "buffer" : 0,
            "byteLength" : 6,
            "byteOffset" : 2092832
        }
    ],
    "buffers" : [
        {
            "byteLength" : 2092840,
            "uri" : "data:application/octet-stream;base64,"
        }
    ]
}
