{
    "asset" : {
        "generator" : "Khronos glTF Blender I/O v0.9.4",
        "version" : "2.0"
    },
    "scene" : 0,
    "scenes" : [
        {
            "extras" : {
                "glTF2ExportSettings" : {
                    "export_extras" : 1,
                    "export_format" : "GLTF_EMBEDDED",
                    "export_selected" : 1
                }
            },
            "name" : "Scene",
            "nodes" : [
                0
            ]
        }
    ],
    "nodes" : [
        {
            "mesh" : 0,
            "name" : "Terrain.000"
        }
    ],
    "materials" : [
        {
            "name" : "Material.003",
            "pbrMetallicRoughness" : {
                "baseColorFactor" : [
                    0.25099626183509827,
                    0.256660133600235,
                    0.09140046685934067,
                    1
                ],
                "metallicFactor" : 0,
                "roughnessFactor" : 0.5
            }
        }
    ],
    "meshes" : [
        {
            "name" : "Icosphere.002",
            "primitives" : [
                {
                    "attributes" : {
                        "POSITION" : 0,
                        "NORMAL" : 1,
                        "TEXCOORD_0" : 2
                    },
                    "indices" : 3,
                    "material" : 0,
                    "targets" : [
                        {
                            "POSITION" : 4,
                            "NORMAL" : 5
                        },
                        {
                            "POSITION" : 6,
                            "NORMAL" : 7
                        },
                        {
                            "POSITION" : 8,
                            "NORMAL" : 9
                        },
                        {
                            "POSITION" : 10,
                            "NORMAL" : 11
                        },
                        {
                            "POSITION" : 12,
                            "NORMAL" : 13
                        },
                        {
                            "POSITION" : 14,
                            "NORMAL" : 15
                        },
                        {
                            "POSITION" : 16,
                            "NORMAL" : 17
                        },
                        {
                            "POSITION" : 18,
                            "NORMAL" : 19
                        }
                    ]
                }
            ]
        }
    ],
    "accessors" : [
        {
            "bufferView" : 0,
            "componentType" : 5126,
            "count" : 1260,
            "max" : [
                3.367063283920288,
                0.0026396363973617554,
                3.367063045501709
            ],
            "min" : [
                -3.367063045501709,
                -1.657377004623413,
                -3.367063283920288
            ],
            "type" : "VEC3"
        },
        {
            "bufferView" : 1,
            "componentType" : 5126,
            "count" : 1260,
            "type" : "VEC3"
        },
        {
            "bufferView" : 2,
            "componentType" : 5126,
            "count" : 1260,
            "type" : "VEC2"
        },
        {
            "bufferView" : 3,
            "componentType" : 5123,
            "count" : 1260,
            "type" : "SCALAR"
        },
        {
            "bufferView" : 4,
            "componentType" : 5126,
            "count" : 1260,
            "max" : [
                0.7269842624664307,
                0.4188845157623291,
                4.064459800720215
            ],
            "min" : [
                -1.1615813970565796,
                -0.5970691442489624,
                -2.005458354949951
            ],
            "type" : "VEC3"
        },
        {
            "bufferView" : 5,
            "componentType" : 5126,
            "count" : 1260,
            "type" : "VEC3"
        },
        {
            "bufferView" : 6,
            "componentType" : 5126,
            "count" : 1260,
            "max" : [
                0.7314051389694214,
                0.3911632299423218,
                3.0582189559936523
            ],
            "min" : [
                -1.2958364486694336,
                -0.17926937341690063,
                -3.147670030593872
            ],
            "type" : "VEC3"
        },
        {
            "bufferView" : 7,
            "componentType" : 5126,
            "count" : 1260,
            "type" : "VEC3"
        },
        {
            "bufferView" : 8,
            "componentType" : 5126,
            "count" : 1260,
            "max" : [
                0.5779402256011963,
                0.47470906376838684,
                1.1329904794692993
            ],
            "min" : [
                -1.1730457544326782,
                -0.5322008728981018,
                -4.319099426269531
            ],
            "type" : "VEC3"
        },
        {
            "bufferView" : 9,
            "componentType" : 5126,
            "count" : 1260,
            "type" : "VEC3"
        },
        {
            "bufferView" : 10,
            "componentType" : 5126,
            "count" : 1260,
            "max" : [
                0.7398636341094971,
                0.22480440139770508,
                0.27359580993652344
            ],
            "min" : [
                -1.2535479068756104,
                -1.135796308517456,
                -5.075579643249512
            ],
            "type" : "VEC3"
        },
        {
            "bufferView" : 11,
            "componentType" : 5126,
            "count" : 1260,
            "type" : "VEC3"
        },
        {
            "bufferView" : 12,
            "componentType" : 5126,
            "count" : 1260,
            "max" : [
                0.6191952228546143,
                0.2435508370399475,
                0.09785342216491699
            ],
            "min" : [
                -1.432681918144226,
                -0.986010730266571,
                -5.704448699951172
            ],
            "type" : "VEC3"
        },
        {
            "bufferView" : 13,
            "componentType" : 5126,
            "count" : 1260,
            "type" : "VEC3"
        },
        {
            "bufferView" : 14,
            "componentType" : 5126,
            "count" : 1260,
            "max" : [
                0.6352130174636841,
                0.4110177159309387,
                3.4703383445739746
            ],
            "min" : [
                -0.8085963726043701,
                -1.0156753063201904,
                -2.0682387351989746
            ],
            "type" : "VEC3"
        },
        {
            "bufferView" : 15,
            "componentType" : 5126,
            "count" : 1260,
            "type" : "VEC3"
        },
        {
            "bufferView" : 16,
            "componentType" : 5126,
            "count" : 1260,
            "max" : [
                1.0724984407424927,
                0.22418197989463806,
                2.8611390590667725
            ],
            "min" : [
                -0.8397952914237976,
                -0.9148833751678467,
                -0.12906765937805176
            ],
            "type" : "VEC3"
        },
        {
            "bufferView" : 17,
            "componentType" : 5126,
            "count" : 1260,
            "type" : "VEC3"
        },
        {
            "bufferView" : 18,
            "componentType" : 5126,
            "count" : 1260,
            "max" : [
                1.4408769607543945,
                0.41788020730018616,
                4.285134315490723
            ],
            "min" : [
                -1.019957184791565,
                -0.9801794290542603,
                -1.3600109815597534
            ],
            "type" : "VEC3"
        },
        {
            "bufferView" : 19,
            "componentType" : 5126,
            "count" : 1260,
            "type" : "VEC3"
        }
    ],
    "bufferViews" : [
        {
            "buffer" : 0,
            "byteLength" : 15120,
            "byteOffset" : 0
        },
        {
            "buffer" : 0,
            "byteLength" : 15120,
            "byteOffset" : 15120
        },
        {
            "buffer" : 0,
            "byteLength" : 10080,
            "byteOffset" : 30240
        },
        {
            "buffer" : 0,
            "byteLength" : 2520,
            "byteOffset" : 40320
        },
        {
            "buffer" : 0,
            "byteLength" : 15120,
            "byteOffset" : 42840
        },
        {
            "buffer" : 0,
            "byteLength" : 15120,
            "byteOffset" : 57960
        },
        {
            "buffer" : 0,
            "byteLength" : 15120,
            "byteOffset" : 73080
        },
        {
            "buffer" : 0,
            "byteLength" : 15120,
            "byteOffset" : 88200
        },
        {
            "buffer" : 0,
            "byteLength" : 15120,
            "byteOffset" : 103320
        },
        {
            "buffer" : 0,
            "byteLength" : 15120,
            "byteOffset" : 118440
        },
        {
            "buffer" : 0,
            "byteLength" : 15120,
            "byteOffset" : 133560
        },
        {
            "buffer" : 0,
            "byteLength" : 15120,
            "byteOffset" : 148680
        },
        {
            "buffer" : 0,
            "byteLength" : 15120,
            "byteOffset" : 163800
        },
        {
            "buffer" : 0,
            "byteLength" : 15120,
            "byteOffset" : 178920
        },
        {
            "buffer" : 0,
            "byteLength" : 15120,
            "byteOffset" : 194040
        },
        {
            "buffer" : 0,
            "byteLength" : 15120,
            "byteOffset" : 209160
        },
        {
            "buffer" : 0,
            "byteLength" : 15120,
            "byteOffset" : 224280
        },
        {
            "buffer" : 0,
            "byteLength" : 15120,
            "byteOffset" : 239400
        },
        {
            "buffer" : 0,
            "byteLength" : 15120,
            "byteOffset" : 254520
        },
        {
            "buffer" : 0,
            "byteLength" : 15120,
            "byteOffset" : 269640
        }
    ],
    "buffers" : [
        {
            "byteLength" : 284760,
            "uri" : "data:application/octet-stream;base64,"
        }
    ]
}
